<svg width="162" height="58" viewBox="0 0 162 58" fill="none" xmlns="http://www.w3.org/2000/svg">
<path d="M8.322 38H2.546V19.114H8.056V21.28C8.512 20.4693 9.25933 19.8107 10.298 19.304C11.362 18.7973 12.426 18.544 13.49 18.544C16.2007 18.544 18.0627 19.532 19.076 21.508C20.444 19.532 22.3947 18.544 24.928 18.544C26.904 18.544 28.5633 19.152 29.906 20.368C31.2487 21.5587 31.92 23.3573 31.92 25.764V38H26.334V27.056C26.334 26.1187 26.0807 25.3587 25.574 24.776C25.0673 24.168 24.32 23.864 23.332 23.864C22.344 23.864 21.5713 24.1807 21.014 24.814C20.4567 25.4473 20.178 26.2073 20.178 27.094V38H14.478V27.056C14.478 26.1187 14.212 25.3587 13.68 24.776C13.1733 24.168 12.426 23.864 11.438 23.864C10.4753 23.864 9.71533 24.1807 9.158 24.814C8.60067 25.4473 8.322 26.22 8.322 27.132V38ZM33.378 32.794C33.378 31.198 33.8973 29.9187 34.936 28.956C35.9746 27.968 37.3173 27.3473 38.964 27.094L43.41 26.41C44.322 26.2833 44.778 25.8527 44.778 25.118C44.778 24.5353 44.5246 24.054 44.018 23.674C43.5366 23.2687 42.8653 23.066 42.004 23.066C41.0413 23.066 40.2686 23.3447 39.686 23.902C39.1286 24.434 38.8246 25.08 38.774 25.84L33.758 24.814C33.8846 23.2433 34.6573 21.812 36.076 20.52C37.52 19.2027 39.5086 18.544 42.042 18.544C44.9046 18.544 47.0073 19.228 48.35 20.596C49.718 21.964 50.402 23.712 50.402 25.84V35.074C50.402 36.2647 50.478 37.24 50.63 38H45.424C45.2973 37.4933 45.234 36.784 45.234 35.872C44.1446 37.6453 42.3713 38.532 39.914 38.532C37.9126 38.532 36.3166 37.9747 35.126 36.86C33.9606 35.72 33.378 34.3647 33.378 32.794ZM41.32 34.352C42.308 34.352 43.1313 34.0607 43.79 33.478C44.4486 32.8953 44.778 31.9327 44.778 30.59V29.754L41.206 30.324C39.7873 30.552 39.078 31.2487 39.078 32.414C39.078 32.946 39.2553 33.402 39.61 33.782C39.99 34.162 40.56 34.352 41.32 34.352ZM59.7125 13.604V19.114H63.3985V24.168H59.7125V31.236C59.7125 32.5533 60.4092 33.212 61.8025 33.212C62.2585 33.212 62.7652 33.1487 63.3225 33.022V37.81C62.6132 38.1647 61.6125 38.342 60.3205 38.342C58.3699 38.342 56.8245 37.7973 55.6845 36.708C54.5699 35.6187 54.0125 34.1367 54.0125 32.262V24.168H50.6685V19.114H51.6185C52.5812 19.114 53.3032 18.8353 53.7845 18.278C54.2912 17.6953 54.5445 16.948 54.5445 16.036V13.604H59.7125ZM69.5777 26.904V38H63.8017V10.488H69.5777V20.33C70.7177 19.19 72.3264 18.62 74.4037 18.62C76.7597 18.62 78.533 19.3293 79.7237 20.748C80.9397 22.1413 81.5477 23.94 81.5477 26.144V38H75.7717V27.132C75.7717 26.144 75.5057 25.3587 74.9737 24.776C74.467 24.168 73.707 23.864 72.6937 23.864C71.807 23.864 71.0724 24.1553 70.4897 24.738C69.9324 25.2953 69.6284 26.0173 69.5777 26.904ZM88.4913 26.296H96.0533C96.0026 25.4347 95.6606 24.6873 95.0273 24.054C94.4193 23.4207 93.4946 23.104 92.2533 23.104C91.1386 23.104 90.252 23.4333 89.5933 24.092C88.9346 24.7507 88.5673 25.4853 88.4913 26.296ZM96.4713 31.198L101.297 32.566C100.816 34.314 99.8153 35.758 98.2953 36.898C96.7753 38.0127 94.8753 38.57 92.5953 38.57C89.8593 38.57 87.5286 37.658 85.6033 35.834C83.7033 34.01 82.7533 31.5653 82.7533 28.5C82.7533 25.5613 83.678 23.1673 85.5273 21.318C87.402 19.4687 89.6186 18.544 92.1773 18.544C95.116 18.544 97.4213 19.4053 99.0933 21.128C100.791 22.8253 101.639 25.194 101.639 28.234C101.639 29.1967 101.601 29.792 101.525 30.02H88.3773C88.428 31.0587 88.8713 31.9327 89.7073 32.642C90.5433 33.326 91.5313 33.668 92.6713 33.668C94.622 33.668 95.8886 32.8447 96.4713 31.198ZM108.844 38H103.068V10.488H108.844V38ZM130.243 10.488V34.618C130.243 35.758 130.294 36.8853 130.395 38H124.847C124.746 37.392 124.695 36.784 124.695 36.176C124.239 36.8347 123.555 37.3793 122.643 37.81C121.756 38.2153 120.756 38.418 119.641 38.418C116.956 38.418 114.726 37.4933 112.953 35.644C111.18 33.7693 110.293 31.388 110.293 28.5C110.293 25.6627 111.154 23.3193 112.877 21.47C114.6 19.5953 116.791 18.658 119.451 18.658C122.035 18.658 123.732 19.304 124.543 20.596V10.488H130.243ZM117.323 25.08C116.512 25.8907 116.107 27.0433 116.107 28.538C116.107 30.0327 116.512 31.198 117.323 32.034C118.159 32.8447 119.172 33.25 120.363 33.25C121.554 33.25 122.554 32.8447 123.365 32.034C124.201 31.198 124.619 30.0327 124.619 28.538C124.619 27.0433 124.201 25.8907 123.365 25.08C122.554 24.2693 121.554 23.864 120.363 23.864C119.172 23.864 118.159 24.2693 117.323 25.08ZM131.842 32.794C131.842 31.198 132.362 29.9187 133.4 28.956C134.439 27.968 135.782 27.3473 137.428 27.094L141.874 26.41C142.786 26.2833 143.242 25.8527 143.242 25.118C143.242 24.5353 142.989 24.054 142.482 23.674C142.001 23.2687 141.33 23.066 140.468 23.066C139.506 23.066 138.733 23.3447 138.15 23.902C137.593 24.434 137.289 25.08 137.238 25.84L132.222 24.814C132.349 23.2433 133.122 21.812 134.54 20.52C135.984 19.2027 137.973 18.544 140.506 18.544C143.369 18.544 145.472 19.228 146.814 20.596C148.182 21.964 148.866 23.712 148.866 25.84V35.074C148.866 36.2647 148.942 37.24 149.094 38H143.888C143.762 37.4933 143.698 36.784 143.698 35.872C142.609 37.6453 140.836 38.532 138.378 38.532C136.377 38.532 134.781 37.9747 133.59 36.86C132.425 35.72 131.842 34.3647 131.842 32.794ZM139.784 34.352C140.772 34.352 141.596 34.0607 142.254 33.478C142.913 32.8953 143.242 31.9327 143.242 30.59V29.754L139.67 30.324C138.252 30.552 137.542 31.2487 137.542 32.414C137.542 32.946 137.72 33.402 138.074 33.782C138.454 34.162 139.024 34.352 139.784 34.352ZM152.359 37.202C151.599 36.4167 151.219 35.492 151.219 34.428C151.219 33.364 151.599 32.452 152.359 31.692C153.119 30.932 154.031 30.552 155.095 30.552C156.159 30.552 157.071 30.932 157.831 31.692C158.616 32.452 159.009 33.364 159.009 34.428C159.009 35.4667 158.616 36.3787 157.831 37.164C157.071 37.9493 156.159 38.342 155.095 38.342C154.031 38.342 153.119 37.962 152.359 37.202Z" fill="black"/>
<path d="M8.272 53.136C8.272 53.456 8.304 53.824 8.336 54H10.112C10.08 53.712 10.032 53.216 10.032 52.576V46.208H8.176V50.816C8.176 51.84 7.616 52.56 6.544 52.56C5.424 52.56 4.976 51.744 4.976 50.784V46.208H3.12V51.12C3.12 52.848 4.208 54.224 6.064 54.224C6.976 54.224 7.888 53.84 8.272 53.136ZM13.1544 54V46.208H11.3144V54H13.1544ZM11.0264 43.472C11.0264 44.144 11.5704 44.672 12.2264 44.672C12.8984 44.672 13.4424 44.144 13.4424 43.472C13.4424 42.8 12.8984 42.256 12.2264 42.256C11.5704 42.256 11.0264 42.8 11.0264 43.472ZM18.5255 50.08C18.5255 48.592 19.4215 47.648 20.6375 47.648C21.8535 47.648 22.6855 48.576 22.6855 50.064C22.6855 51.552 21.8375 52.56 20.6215 52.56C19.3575 52.56 18.5255 51.568 18.5255 50.08ZM24.4775 42.416H22.6695V47.12C22.4295 46.624 21.7415 46 20.3815 46C18.1895 46 16.6695 47.84 16.6695 50.08C16.6695 52.432 18.1735 54.192 20.4135 54.192C21.5175 54.192 22.3335 53.648 22.7015 52.992C22.7015 53.312 22.7495 53.824 22.7815 54H24.5575C24.5415 53.872 24.4775 53.28 24.4775 52.576V42.416ZM27.0785 49.248C27.1425 48.416 27.8145 47.52 28.9825 47.52C30.2625 47.52 30.8705 48.336 30.9025 49.248H27.0785ZM31.1105 51.28C30.8545 52.048 30.2785 52.64 29.1585 52.64C28.0065 52.64 27.0785 51.792 27.0305 50.608H32.7265C32.7425 50.576 32.7745 50.32 32.7745 50.016C32.7745 47.552 31.3665 45.968 28.9665 45.968C26.9985 45.968 25.1745 47.6 25.1745 50.064C25.1745 52.704 27.0465 54.24 29.1585 54.24C31.0305 54.24 32.2625 53.136 32.6785 51.776L31.1105 51.28ZM32.7401 51.888C32.8361 52.768 33.7001 54.24 35.9561 54.24C37.9401 54.24 38.9001 52.928 38.9001 51.744C38.9001 50.592 38.1321 49.696 36.6601 49.376L35.4761 49.136C34.9961 49.04 34.6921 48.736 34.6921 48.32C34.6921 47.84 35.1561 47.424 35.8121 47.424C36.8521 47.424 37.1881 48.144 37.2521 48.592L38.8201 48.144C38.6921 47.376 37.9881 45.968 35.8121 45.968C34.1961 45.968 32.9481 47.12 32.9481 48.48C32.9481 49.552 33.6681 50.448 35.0441 50.752L36.1961 51.008C36.8201 51.136 37.1081 51.456 37.1081 51.872C37.1081 52.352 36.7081 52.768 35.9401 52.768C34.9481 52.768 34.4201 52.144 34.3561 51.44L32.7401 51.888ZM41.4606 54V46.208H39.6206V54H41.4606ZM39.3326 43.472C39.3326 44.144 39.8766 44.672 40.5326 44.672C41.2046 44.672 41.7486 44.144 41.7486 43.472C41.7486 42.8 41.2046 42.256 40.5326 42.256C39.8766 42.256 39.3326 42.8 39.3326 43.472ZM42.175 54.432C42.383 56 43.823 57.28 45.887 57.28C48.815 57.28 49.887 55.344 49.887 53.264V46.208H48.095V47.2C47.759 46.56 47.007 46.064 45.791 46.064C43.647 46.064 42.191 47.776 42.191 49.856C42.191 52.048 43.711 53.648 45.791 53.648C46.927 53.648 47.711 53.12 48.047 52.512V53.328C48.047 54.912 47.311 55.664 45.839 55.664C44.767 55.664 44.015 54.944 43.887 53.984L42.175 54.432ZM46.095 52.064C44.879 52.064 44.063 51.216 44.063 49.856C44.063 48.528 44.911 47.664 46.095 47.664C47.247 47.664 48.095 48.528 48.095 49.856C48.095 51.2 47.279 52.064 46.095 52.064ZM52.8929 49.504C52.8929 48.48 53.4529 47.664 54.5089 47.664C55.6769 47.664 56.1089 48.432 56.1089 49.392V54H57.9649V49.072C57.9649 47.36 57.0529 45.984 55.1489 45.984C54.2849 45.984 53.3569 46.352 52.8449 47.248V46.208H51.0369V54H52.8929V49.504ZM60.4004 49.248C60.4644 48.416 61.1364 47.52 62.3044 47.52C63.5844 47.52 64.1924 48.336 64.2244 49.248H60.4004ZM64.4324 51.28C64.1764 52.048 63.6004 52.64 62.4804 52.64C61.3284 52.64 60.4004 51.792 60.3524 50.608H66.0484C66.0644 50.576 66.0964 50.32 66.0964 50.016C66.0964 47.552 64.6884 45.968 62.2884 45.968C60.3204 45.968 58.4964 47.6 58.4964 50.064C58.4964 52.704 60.3684 54.24 62.4804 54.24C64.3524 54.24 65.5844 53.136 66.0004 51.776L64.4324 51.28ZM71.31 46.16C71.23 46.144 71.038 46.112 70.814 46.112C69.79 46.112 68.926 46.608 68.558 47.456V46.208H66.75V54H68.606V50.288C68.606 48.832 69.262 48 70.702 48C70.894 48 71.102 48.016 71.31 48.048V46.16Z" fill="black"/>
</svg>
